<svg xmlns="http://www.w3.org/2000/svg" width="32" height="32" viewBox="0 0 64 64"><g><linearGradient id="a" x1="4" x2="60" y1="32.005" y2="32.005" gradientUnits="userSpaceOnUse"><stop offset="0" stop-color="#9cffac"></stop><stop offset="1" stop-color="#00b59c"></stop></linearGradient><path fill="url(#a)" d="M58.44 40.36A2.011 2.011 0 0 0 60 38.41v-1.73a6.005 6.005 0 0 0-6-6h-7.72c-.011.938.008 2.8 0 3.73a1.001 1.001 0 0 1-1.96.27c-.071-.192-.04-4-.04-4s-32.71-.003-33.92 0a6.031 6.031 0 0 0-6.36 6v1.66a1.997 1.997 0 0 0 1.69 1.97 4.261 4.261 0 0 1 0 8.41A1.997 1.997 0 0 0 4 50.69v1.65a6.005 6.005 0 0 0 6 6h34.28s-.062-3.83.05-4a.992.992 0 0 1 1.9 0c.126.297.05 4 .05 4H54a6.005 6.005 0 0 0 6-6v-1.73a1.991 1.991 0 0 0-1.56-1.94 4.267 4.267 0 0 1 0-8.31zM46.28 49.7a1 1 0 0 1-2 0v-2.73a1 1 0 0 1 2 0zm0-7.65a1 1 0 0 1-2 0v-2.72a1 1 0 0 1 2 0zm-5.12-13.37c-.484-.49-1.453-1.45-1.93-1.93a1 1 0 0 1 1.41-1.42c.53.532 1.73 1.73 2.27 2.27l4.3-4.3a5.072 5.072 0 0 0 .01-7.15l-.89-.9a1.98 1.98 0 0 0-2.43-.3 3.27 3.27 0 0 1-4.49-4.48 1.982 1.982 0 0 0-.3-2.43l-.89-.89a5.084 5.084 0 0 0-7.16-.01l-4.31 4.3c.55.548 1.748 1.75 2.28 2.28a1 1 0 0 1-1.42 1.41c-.53-.523-1.732-1.737-2.27-2.27L9.49 28.7c.17-.01 31.67-.02 31.67-.02zm-6.33-7.74a1.008 1.008 0 0 1 1.42 0l1.56 1.57a.978.978 0 0 1 0 1.41.997.997 0 0 1-1.41 0l-1.57-1.57a.996.996 0 0 1 0-1.41zm-4.39-4.39a1.008 1.008 0 0 1 1.42 0l1.56 1.56a1 1 0 1 1-1.41 1.42l-1.57-1.57a.996.996 0 0 1 0-1.41z" opacity="1" data-original="url(#a)"></path></g></svg>

